# xmcd
#
# Track frame offsets:
#	150
#	17102
#	34134
#	53646
#	71703
#	88735
#	100307
#	115849
#	132301
#	145468
#	161745
#	188632
#	202819
#	216511
#	230588
#	246180
#	260757
#	277364
#	293521
#	307783
#	323420
#	342282
#
# Disc length: 4771 seconds
#
# Revision: 1
# Processed by: cddbd v1.4PL0 Copyright (c) Steve Scherf et al.
# Submitted via: audiograbber 1.82.02
#
DISCID=4e12a116
DTITLE=VER - PSA Programing CT-001
DYEAR=1900
DGENRE=Country
TTITLE0=Blake Shelton - The Baby (2000)
TTITLE1=Toby Keith - American Soldier (03)
TTITLE2=Clint Black and Martina McBride - Still Holding On
TTITLE3=Faith Hill - Breath
TTITLE4=Shania Twain - She's Not Just A Pretty Face (02)
TTITLE5=Neal McCoy - Wink (94)
TTITLE6=Lee Ann Womack - A Little Past Little Rock (98)
TTITLE7=Sara Evans - Perfect (03)
TTITLE8=Billy Scott and the Georgia Prophets - California
TTITLE9=Chris Cagle - What A Beautiful Day (02)
TTITLE10=Phil Vassar - That's When I Love You (02)
TTITLE11=Mary Chapin - Down At The Twist and Shout
TTITLE12=Kevin Denney - A Year At A Time (03)
TTITLE13=Kenny Chesney - Shes Got It All (02)
TTITLE14=Le Ann Rimes - On The Side Of Angels (03)
TTITLE15=Randy Travis - Three Wooden Crosses (02)
TTITLE16=George Strait - Run (01)
TTITLE17=Lonestar - Walking In Memphis (03)
TTITLE18=Nitty Gritty Dirt Band - Fishing In The Dark
TTITLE19=Suzy Bogguss and T. Graham Brown - Love Is Blind
TTITLE20=Garth Brooks - Shameless (91)
TTITLE21=Carolyn Dawn Johnson - Simple Life (03)
EXTD=
EXTT0=
EXTT1=
EXTT2=
EXTT3=
EXTT4=
EXTT5=
EXTT6=
EXTT7=
EXTT8=
EXTT9=
EXTT10=
EXTT11=
EXTT12=
EXTT13=
EXTT14=
EXTT15=
EXTT16=
EXTT17=
EXTT18=
EXTT19=
EXTT20=
EXTT21=
PLAYORDER=
